<?xml version="1.0" encoding="UTF-8"?>
<!DOCTYPE svg PUBLIC "-//W3C//DTD SVG 1.1//EN" "http://www.w3.org/Graphics/SVG/1.1/DTD/svg11.dtd">
<svg xmlns="http://www.w3.org/2000/svg" version="1.1" width="850px" height="272px" style="shape-rendering:geometricPrecision; text-rendering:geometricPrecision; image-rendering:optimizeQuality; fill-rule:evenodd; clip-rule:evenodd" xmlns:xlink="http://www.w3.org/1999/xlink">
<g><path style="opacity:0.337" fill="#5e5a76" d="M 262.5,77.5 C 261.07,77.5792 259.736,77.2458 258.5,76.5C 257.999,78.6551 256.999,80.3218 255.5,81.5C 255.477,77.2542 254.477,73.2542 252.5,69.5C 253.207,65.9499 255.207,64.9499 258.5,66.5C 261.167,68.8333 261.167,71.1667 258.5,73.5C 259.689,74.4287 261.022,74.762 262.5,74.5C 262.5,75.5 262.5,76.5 262.5,77.5 Z"/></g>
<g><path style="opacity:0.141" fill="#616275" d="M 267.5,65.5 C 271.136,65.0483 273.47,66.5483 274.5,70C 274.102,71.8988 273.102,73.3988 271.5,74.5C 270.476,73.1468 269.143,72.4802 267.5,72.5C 267.5,70.1667 267.5,67.8333 267.5,65.5 Z"/></g>
<g><path style="opacity:0.004" fill="#000000" d="M 276.5,79.5 C 277.833,80.1667 277.833,80.1667 276.5,79.5 Z"/></g>
<g><path style="opacity:0.514" fill="#5139ae" d="M 230.5,77.5 C 230.833,77.5 231.167,77.5 231.5,77.5C 231.276,81.1788 230.942,84.8455 230.5,88.5C 233.518,88.7038 236.518,89.0371 239.5,89.5C 239.392,87.4862 240.058,85.8195 241.5,84.5C 245.118,80.9426 249.118,80.6093 253.5,83.5C 254.806,86.9798 254.806,90.3132 253.5,93.5C 253.806,90.6146 253.473,87.9479 252.5,85.5C 249.776,83.0617 246.776,82.895 243.5,85C 241.162,87.5417 240.828,90.3751 242.5,93.5C 242.167,93.5 241.833,93.5 241.5,93.5C 240.5,93.5 239.5,93.5 238.5,93.5C 238.5,94.5 238.5,95.5 238.5,96.5C 237.476,91.4847 234.476,89.818 229.5,91.5C 229.5,90.8333 229.5,90.1667 229.5,89.5C 229.5,88.5 229.5,87.5 229.5,86.5C 219.98,87.8357 217.313,84.3357 221.5,76C 224.167,75.3333 226.833,75.3333 229.5,76C 230.056,76.3826 230.389,76.8826 230.5,77.5 Z"/></g>
<g><path style="opacity:1" fill="#562ae2" d="M 230.5,77.5 C 230.347,84.8646 227.18,86.8646 221,83.5C 220.104,80.975 220.604,78.8083 222.5,77C 225.221,76.3985 227.887,76.5651 230.5,77.5 Z"/></g>
<g><path style="opacity:0.565" fill="#5a4e9e" d="M 231.5,77.5 C 231.167,77.5 230.833,77.5 230.5,77.5C 230.389,76.8826 230.056,76.3826 229.5,76C 226.833,75.3333 224.167,75.3333 221.5,76C 217.313,84.3357 219.98,87.8357 229.5,86.5C 229.5,87.5 229.5,88.5 229.5,89.5C 225.671,88.931 222.337,89.5977 219.5,91.5C 218.373,90.8783 217.373,90.045 216.5,89C 201.661,88.1724 186.994,88.3391 172.5,89.5C 168.167,90.1667 163.833,90.8333 159.5,91.5C 162.833,89.8333 166.167,88.1667 169.5,86.5C 185.5,86.5 201.5,86.5 217.5,86.5C 216.987,81.915 217.654,77.5817 219.5,73.5C 222.833,72.1667 226.167,72.1667 229.5,73.5C 230.853,74.5237 231.52,75.857 231.5,77.5 Z M 218.5,86.5 C 219.773,87.0768 219.773,87.7435 218.5,88.5C 217.537,88.0302 217.537,87.3635 218.5,86.5 Z"/></g>
<g><path style="opacity:0.573" fill="#53428c" d="M 231.5,77.5 C 232.5,77.5 233.5,77.5 234.5,77.5C 234.5,79.8333 234.5,82.1667 234.5,84.5C 230.556,85.2745 230.723,85.9411 235,86.5C 237.239,85.9089 239.406,85.2422 241.5,84.5C 240.058,85.8195 239.392,87.4862 239.5,89.5C 236.518,89.0371 233.518,88.7038 230.5,88.5C 230.942,84.8455 231.276,81.1788 231.5,77.5 Z"/></g>
<g><path style="opacity:1" fill="#522fd4" d="M 252.5,85.5 C 253.473,87.9479 253.806,90.6146 253.5,93.5C 250.685,93.8919 248.185,94.8919 246,96.5C 243.725,96.7224 242.559,95.7224 242.5,93.5C 240.828,90.3751 241.162,87.5417 243.5,85C 246.776,82.895 249.776,83.0617 252.5,85.5 Z"/></g>
<g><path style="opacity:0.89" fill="#6c59d1" d="M 172.5,89.5 C 186.994,88.3391 201.661,88.1724 216.5,89C 217.373,90.045 218.373,90.8783 219.5,91.5C 221.277,91.7863 222.944,92.4529 224.5,93.5C 226.056,92.4529 227.723,91.7863 229.5,91.5C 229.427,94.9496 227.594,96.283 224,95.5C 221.659,95.1705 219.492,94.5038 217.5,93.5C 217.426,91.5891 216.426,90.4224 214.5,90C 200.504,89.5001 186.504,89.3334 172.5,89.5 Z"/></g>
<g><path style="opacity:0.749" fill="#887ab9" d="M 169.5,86.5 C 166.167,88.1667 162.833,89.8333 159.5,91.5C 156.306,92.7576 152.973,93.4242 149.5,93.5C 152.244,90.6154 155.577,88.4487 159.5,87C 162.817,86.5017 166.15,86.335 169.5,86.5 Z"/></g>
<g><path style="opacity:1" fill="#4c2ee3" d="M 172.5,89.5 C 186.504,89.3334 200.504,89.5001 214.5,90C 216.426,90.4224 217.426,91.5891 217.5,93.5C 216.5,92.1667 215.5,92.1667 214.5,93.5C 198.901,91.2243 183.235,90.8909 167.5,92.5C 164.098,92.3424 160.764,92.6758 157.5,93.5C 151.831,95.5611 147.164,99.0611 143.5,104C 141.113,104.564 139.113,105.73 137.5,107.5C 140.131,102.869 143.798,99.2022 148.5,96.5C 149.386,95.675 149.719,94.675 149.5,93.5C 152.973,93.4242 156.306,92.7576 159.5,91.5C 163.833,90.8333 168.167,90.1667 172.5,89.5 Z"/></g>
<g><path style="opacity:1" fill="#5122f7" d="M 252.5,85.5 C 252.5,87.8333 252.5,90.1667 252.5,92.5C 249.824,93.0081 247.157,93.1747 244.5,93C 242.65,91.1551 242.317,89.1551 243.5,87C 246.393,85.8512 249.393,85.3512 252.5,85.5 Z"/></g>
<g><path style="opacity:1" fill="#4f1efd" d="M 214.5,93.5 C 214.586,94.4959 214.252,95.3292 213.5,96C 211.608,96.9734 209.608,97.6401 207.5,98C 198.361,98.8287 189.361,100.329 180.5,102.5C 177.092,100.952 173.926,101.285 171,103.5C 169.347,103.18 168.347,102.18 168,100.5C 166.266,101.249 164.433,101.749 162.5,102C 163.696,102.654 163.696,103.154 162.5,103.5C 160.39,103.706 158.39,102.873 156.5,101C 157.833,100 157.833,99 156.5,98C 160.026,96.6632 163.692,96.1632 167.5,96.5C 167.5,95.1667 167.5,93.8333 167.5,92.5C 183.235,90.8909 198.901,91.2243 214.5,93.5 Z"/></g>
<g><path style="opacity:0.678" fill="#4d4492" d="M 270.5,93.5 C 270.5,89.5 270.5,85.5 270.5,81.5C 273.5,81.5 276.5,81.5 279.5,81.5C 279.5,82.5 279.5,83.5 279.5,84.5C 280.5,84.5 281.5,84.5 282.5,84.5C 282.5,86.8333 282.5,89.1667 282.5,91.5C 279.5,91.8333 277.833,93.5 277.5,96.5C 275.833,96.5 274.167,96.5 272.5,96.5C 272.715,94.8212 272.048,93.8212 270.5,93.5 Z"/></g>
<g><path style="opacity:1" fill="#4637c5" d="M 272.5,84.5 C 277.495,84.1248 279.495,86.4582 278.5,91.5C 276.5,91.5 274.5,91.5 272.5,91.5C 272.5,89.1667 272.5,86.8333 272.5,84.5 Z"/></g>
<g><path style="opacity:0.812" fill="#4d4396" d="M 270.5,93.5 C 269.771,96.9803 268.771,100.314 267.5,103.5C 265.167,103.5 262.833,103.5 260.5,103.5C 256.5,92.8333 259.833,89.5 270.5,93.5 Z"/></g>
<g><path style="opacity:1" fill="#482ae0" d="M 238.5,96.5 C 238.75,97.9221 239.583,98.9221 241,99.5C 241.49,100.793 241.657,102.127 241.5,103.5C 239.297,103.604 237.297,104.27 235.5,105.5C 235.751,103.83 236.418,102.33 237.5,101C 236.473,100.487 235.473,99.9867 234.5,99.5C 233.359,98.661 232.026,97.9943 230.5,97.5C 226.892,98.5932 223.225,98.7599 219.5,98C 217.893,96.951 217.227,95.451 217.5,93.5C 219.492,94.5038 221.659,95.1705 224,95.5C 227.594,96.283 229.427,94.9496 229.5,91.5C 234.476,89.818 237.476,91.4847 238.5,96.5 Z"/></g>
<g><path style="opacity:0.549" fill="#574e9c" d="M 262.5,77.5 C 263.5,77.5 264.5,77.5 265.5,77.5C 265.5,79.8333 265.5,82.1667 265.5,84.5C 262.342,85.8758 259.009,86.5424 255.5,86.5C 255.82,89.8984 255.487,93.2317 254.5,96.5C 252.444,98.0194 250.11,98.8528 247.5,99C 247.167,100 246.833,101 246.5,102C 250.783,102.768 254.783,103.934 258.5,105.5C 254.671,104.931 251.337,105.598 248.5,107.5C 247.523,110.287 247.19,113.287 247.5,116.5C 251.182,116.665 254.848,116.499 258.5,116C 259.456,112.606 259.789,109.106 259.5,105.5C 260.809,109.351 260.809,113.351 259.5,117.5C 255.5,120.167 251.5,120.167 247.5,117.5C 247.167,118.167 246.833,118.833 246.5,119.5C 247.802,131.314 247.802,142.98 246.5,154.5C 245.74,150.919 245.24,147.252 245,143.5C 244.722,144.416 244.222,145.082 243.5,145.5C 243.5,144.833 243.5,144.167 243.5,143.5C 243.826,135.316 243.492,127.316 242.5,119.5C 242.167,119.5 241.833,119.5 241.5,119.5C 240.359,117.912 238.859,116.579 237,115.5C 236.26,114.251 236.427,113.251 237.5,112.5C 240.145,114.242 243.145,114.909 246.5,114.5C 246.5,111.5 246.5,108.5 246.5,105.5C 243.753,105.187 241.086,105.52 238.5,106.5C 237.05,107.85 236.383,109.516 236.5,111.5C 235.539,109.735 235.205,107.735 235.5,105.5C 237.297,104.27 239.297,103.604 241.5,103.5C 241.657,102.127 241.49,100.793 241,99.5C 239.583,98.9221 238.75,97.9221 238.5,96.5C 239.5,96.5 240.5,96.5 241.5,96.5C 241.5,95.5 241.5,94.5 241.5,93.5C 241.833,93.5 242.167,93.5 242.5,93.5C 242.559,95.7224 243.725,96.7224 246,96.5C 248.185,94.8919 250.685,93.8919 253.5,93.5C 254.806,90.3132 254.806,86.9798 253.5,83.5C 249.118,80.6093 245.118,80.9426 241.5,84.5C 242.16,80.7273 244.494,79.0607 248.5,79.5C 251.012,79.7966 253.345,80.4633 255.5,81.5C 256.999,80.3218 257.999,78.6551 258.5,76.5C 259.736,77.2458 261.07,77.5792 262.5,77.5 Z"/></g>
<g><path style="opacity:0.361" fill="#5650a6" d="M 149.5,93.5 C 149.719,94.675 149.386,95.675 148.5,96.5C 143.798,99.2022 140.131,102.869 137.5,107.5C 135.887,109.461 134.887,111.794 134.5,114.5C 133.596,115.209 133.263,116.209 133.5,117.5C 132.5,117.5 131.5,117.5 130.5,117.5C 130.5,115.167 130.5,112.833 130.5,110.5C 131.5,110.5 132.5,110.5 133.5,110.5C 133.928,106.761 135.261,103.427 137.5,100.5C 140.167,99.1667 142.833,97.8333 145.5,96.5C 145.5,95.5 145.5,94.5 145.5,93.5C 146.833,93.5 148.167,93.5 149.5,93.5 Z"/></g>
<g><path style="opacity:1" fill="#4722fc" d="M 167.5,92.5 C 167.5,93.8333 167.5,95.1667 167.5,96.5C 163.692,96.1632 160.026,96.6632 156.5,98C 157.833,99 157.833,100 156.5,101C 158.39,102.873 160.39,103.706 162.5,103.5C 163.696,103.154 163.696,102.654 162.5,102C 164.433,101.749 166.266,101.249 168,100.5C 168.347,102.18 169.347,103.18 171,103.5C 173.926,101.285 177.092,100.952 180.5,102.5C 189.361,100.329 198.361,98.8287 207.5,98C 209.608,97.6401 211.608,96.9734 213.5,96C 214.252,95.3292 214.586,94.4959 214.5,93.5C 215.5,92.1667 216.5,92.1667 217.5,93.5C 217.227,95.451 217.893,96.951 219.5,98C 223.225,98.7599 226.892,98.5932 230.5,97.5C 232.026,97.9943 233.359,98.661 234.5,99.5C 234.631,100.239 234.464,100.906 234,101.5C 230.935,101.393 227.935,101.393 225,101.5C 224.5,102 224,102.5 223.5,103C 229.051,105.631 228.718,107.131 222.5,107.5C 218.949,107.736 217.116,106.069 217,102.5C 213.649,106.239 210.149,106.739 206.5,104C 204.667,103.833 202.833,103.667 201,103.5C 191.719,104.841 182.552,105.841 173.5,106.5C 168.326,107.077 163.159,107.743 158,108.5C 155.687,106.069 152.854,105.069 149.5,105.5C 149.5,103.167 149.5,100.833 149.5,98.5C 151.937,98.2437 154.271,97.5771 156.5,96.5C 157.386,95.675 157.719,94.675 157.5,93.5C 160.764,92.6758 164.098,92.3424 167.5,92.5 Z"/></g>
<g><path style="opacity:1" fill="#3f2df9" d="M 157.5,93.5 C 157.719,94.675 157.386,95.675 156.5,96.5C 154.271,97.5771 151.937,98.2437 149.5,98.5C 149.5,100.833 149.5,103.167 149.5,105.5C 152.854,105.069 155.687,106.069 158,108.5C 163.159,107.743 168.326,107.077 173.5,106.5C 179.026,106.179 184.36,106.512 189.5,107.5C 176.414,106.427 164.581,109.76 154,117.5C 153.51,118.793 153.343,120.127 153.5,121.5C 151.344,123.501 149.011,125.501 146.5,127.5C 143.543,126.818 140.543,126.652 137.5,127C 135.603,125.735 134.27,124.069 133.5,122C 134.159,119.538 134.493,117.038 134.5,114.5C 134.887,111.794 135.887,109.461 137.5,107.5C 139.113,105.73 141.113,104.564 143.5,104C 147.164,99.0611 151.831,95.5611 157.5,93.5 Z"/></g>
<g><path style="opacity:1" fill="#4128fc" d="M 234.5,99.5 C 235.473,99.9867 236.473,100.487 237.5,101C 236.418,102.33 235.751,103.83 235.5,105.5C 234.5,105.5 233.5,105.5 232.5,105.5C 232.657,106.873 232.49,108.207 232,109.5C 231.086,108.346 230.253,108.513 229.5,110C 230.961,112.985 230.295,115.485 227.5,117.5C 225.946,115.067 225.28,112.4 225.5,109.5C 222.873,110.092 220.206,110.425 217.5,110.5C 217.649,111.552 217.483,112.552 217,113.5C 211.797,112.075 206.631,110.741 201.5,109.5C 197.462,108.905 193.462,108.238 189.5,107.5C 184.36,106.512 179.026,106.179 173.5,106.5C 182.552,105.841 191.719,104.841 201,103.5C 202.833,103.667 204.667,103.833 206.5,104C 210.149,106.739 213.649,106.239 217,102.5C 217.116,106.069 218.949,107.736 222.5,107.5C 228.718,107.131 229.051,105.631 223.5,103C 224,102.5 224.5,102 225,101.5C 227.935,101.393 230.935,101.393 234,101.5C 234.464,100.906 234.631,100.239 234.5,99.5 Z"/></g>
<g><path style="opacity:1" fill="#5048d2" d="M 189.5,107.5 C 193.462,108.238 197.462,108.905 201.5,109.5C 203.81,110.325 205.81,111.658 207.5,113.5C 198.739,111.915 189.905,110.915 181,110.5C 177.5,110.833 174,111.167 170.5,111.5C 168.456,112.065 166.79,113.065 165.5,114.5C 165.5,115.167 165.167,115.5 164.5,115.5C 163.054,114.387 161.387,114.22 159.5,115C 157.973,117.69 155.973,119.857 153.5,121.5C 153.343,120.127 153.51,118.793 154,117.5C 164.581,109.76 176.414,106.427 189.5,107.5 Z"/></g>
<g><path style="opacity:1" fill="#4f47b8" d="M 258.5,105.5 C 258.833,105.5 259.167,105.5 259.5,105.5C 259.789,109.106 259.456,112.606 258.5,116C 254.848,116.499 251.182,116.665 247.5,116.5C 247.19,113.287 247.523,110.287 248.5,107.5C 251.337,105.598 254.671,104.931 258.5,105.5 Z"/></g>
<g><path style="opacity:1" fill="#4434ef" d="M 248.5,107.5 C 250.738,106.463 253.071,106.297 255.5,107C 258.551,108.36 259.218,110.527 257.5,113.5C 254.572,114.484 251.572,114.817 248.5,114.5C 248.5,112.167 248.5,109.833 248.5,107.5 Z"/></g>
<g><path style="opacity:0.937" fill="#5354ab" d="M 164.5,115.5 C 162.617,117.45 160.617,119.45 158.5,121.5C 157.614,122.325 157.281,123.325 157.5,124.5C 156.5,124.5 155.5,124.5 154.5,124.5C 154.634,126.292 154.301,127.958 153.5,129.5C 152.222,129.782 151.222,130.449 150.5,131.5C 150.433,130.041 150.766,128.708 151.5,127.5C 152.285,125.626 152.952,123.626 153.5,121.5C 155.973,119.857 157.973,117.69 159.5,115C 161.387,114.22 163.054,114.387 164.5,115.5 Z"/></g>
<g><path style="opacity:0.624" fill="#4e4e9f" d="M 207.5,113.5 C 212.267,118.058 217.267,122.392 222.5,126.5C 224.675,131.77 225.009,137.103 223.5,142.5C 222.656,138.901 222.323,135.234 222.5,131.5C 221.5,131.5 220.5,131.5 219.5,131.5C 219.989,127.513 218.322,125.18 214.5,124.5C 214.52,122.857 213.853,121.524 212.5,120.5C 209.316,118.89 205.983,117.89 202.5,117.5C 202.5,116.5 202.5,115.5 202.5,114.5C 196.22,113.559 189.886,112.893 183.5,112.5C 177.435,112.838 171.435,113.505 165.5,114.5C 166.79,113.065 168.456,112.065 170.5,111.5C 174,111.167 177.5,110.833 181,110.5C 189.905,110.915 198.739,111.915 207.5,113.5 Z"/></g>
<g><path style="opacity:1" fill="#055dd1" d="M 576.5,111.5 C 578.027,111.427 579.027,112.094 579.5,113.5C 577.258,115.452 576.924,117.785 578.5,120.5C 575.167,120.5 571.833,120.5 568.5,120.5C 568.5,117.833 568.5,115.167 568.5,112.5C 571.385,112.806 574.052,112.473 576.5,111.5 Z"/></g>
<g><path style="opacity:1" fill="#3b30f8" d="M 235.5,105.5 C 235.205,107.735 235.539,109.735 236.5,111.5C 237.167,111.5 237.5,111.833 237.5,112.5C 236.427,113.251 236.26,114.251 237,115.5C 238.859,116.579 240.359,117.912 241.5,119.5C 241.52,121.143 240.853,122.476 239.5,123.5C 236.634,124.208 233.8,124.875 231,125.5C 228.122,123.961 224.955,122.961 221.5,122.5C 222.326,121.549 222.492,120.549 222,119.5C 220.605,120.43 219.105,120.43 217.5,119.5C 215.527,118.194 213.861,116.527 212.5,114.5C 210.929,113.691 209.262,113.357 207.5,113.5C 205.81,111.658 203.81,110.325 201.5,109.5C 206.631,110.741 211.797,112.075 217,113.5C 217.483,112.552 217.649,111.552 217.5,110.5C 220.206,110.425 222.873,110.092 225.5,109.5C 225.28,112.4 225.946,115.067 227.5,117.5C 230.295,115.485 230.961,112.985 229.5,110C 230.253,108.513 231.086,108.346 232,109.5C 232.49,108.207 232.657,106.873 232.5,105.5C 233.5,105.5 234.5,105.5 235.5,105.5 Z"/></g>
<g><path style="opacity:1" fill="#0365e3" d="M 450.5,177.5 C 450.5,176.833 450.5,176.167 450.5,175.5C 451.167,155.329 451.833,134.996 452.5,114.5C 454.747,113.626 457.08,113.292 459.5,113.5C 459.5,134.833 459.5,156.167 459.5,177.5C 456.5,177.5 453.5,177.5 450.5,177.5 Z"/></g>
<g><path style="opacity:0.275" fill="#2255a4" d="M 576.5,111.5 C 574.052,112.473 571.385,112.806 568.5,112.5C 568.5,115.167 568.5,117.833 568.5,120.5C 571.833,120.5 575.167,120.5 578.5,120.5C 576.924,117.785 577.258,115.452 579.5,113.5C 579.5,116.167 579.5,118.833 579.5,121.5C 575.003,122.055 570.836,121.389 567,119.5C 566.289,117.101 566.456,114.768 567.5,112.5C 570.428,111.516 573.428,111.183 576.5,111.5 Z"/></g>
<g><path style="opacity:1" fill="#0564e0" d="M 546.5,172.5 C 547.791,172.263 548.791,172.596 549.5,173.5C 547.023,174.12 547.023,175.12 549.5,176.5C 549.291,177.086 548.957,177.586 548.5,178C 546.167,178.667 543.833,178.667 541.5,178C 539.789,175.411 537.955,172.911 536,170.5C 535.5,158.505 535.333,146.505 535.5,134.5C 533.5,134.5 531.5,134.5 529.5,134.5C 529.5,133.167 529.5,131.833 529.5,130.5C 531.548,130.84 532.548,130.507 532.5,129.5C 533.23,127.994 533.563,126.66 533.5,125.5C 534.224,123.782 534.891,121.948 535.5,120C 537.81,119.503 540.143,119.337 542.5,119.5C 542.241,123.24 542.574,126.906 543.5,130.5C 546.768,131.487 550.102,131.82 553.5,131.5C 553.5,132.833 553.5,134.167 553.5,135.5C 549.894,135.211 546.394,135.544 543,136.5C 542.333,147.5 542.333,158.5 543,169.5C 543.72,171.056 544.887,172.056 546.5,172.5 Z"/></g>
<g><path style="opacity:0.945" fill="#5c69b1" d="M 173.5,126.5 C 181.632,126.114 189.632,126.781 197.5,128.5C 197.5,129.5 197.5,130.5 197.5,131.5C 198.5,131.5 199.5,131.5 200.5,131.5C 201.459,135.767 202.126,140.1 202.5,144.5C 202.249,148.913 201.582,153.246 200.5,157.5C 191.839,162.579 182.672,163.579 173,160.5C 172.257,149.14 172.423,137.807 173.5,126.5 Z"/></g>
<g><path style="opacity:1" fill="#3c4df8" d="M 207.5,113.5 C 209.262,113.357 210.929,113.691 212.5,114.5C 213.861,116.527 215.527,118.194 217.5,119.5C 219.105,120.43 220.605,120.43 222,119.5C 222.492,120.549 222.326,121.549 221.5,122.5C 224.955,122.961 228.122,123.961 231,125.5C 233.8,124.875 236.634,124.208 239.5,123.5C 240.853,122.476 241.52,121.143 241.5,119.5C 241.833,119.5 242.167,119.5 242.5,119.5C 242.5,125.5 242.5,131.5 242.5,137.5C 238.389,137.522 234.389,138.189 230.5,139.5C 229.534,137.604 229.201,135.604 229.5,133.5C 228.167,133.5 226.833,133.5 225.5,133.5C 226.021,130.364 225.021,128.03 222.5,126.5C 217.267,122.392 212.267,118.058 207.5,113.5 Z"/></g>
<g><path style="opacity:0.031" fill="#205b9d" d="M 461.5,116.5 C 461.5,137.833 461.5,159.167 461.5,180.5C 460.167,180.5 458.833,180.5 457.5,180.5C 458.209,179.596 459.209,179.263 460.5,179.5C 460.169,158.327 460.503,137.327 461.5,116.5 Z"/></g>
<g><path style="opacity:1" fill="#1460c8" d="M 636.5,148.5 C 635.883,148.611 635.383,148.944 635,149.5C 634.061,146.879 633.228,144.212 632.5,141.5C 630.877,142.491 629.877,141.824 629.5,139.5C 628.372,138.738 627.205,138.071 626,137.5C 625.383,136.551 625.549,135.718 626.5,135C 624.782,134.654 623.115,134.154 621.5,133.5C 621.167,133.833 620.833,134.167 620.5,134.5C 622.133,137.96 623.966,141.294 626,144.5C 626.667,151.833 626.667,159.167 626,166.5C 625.718,170.718 623.551,173.385 619.5,174.5C 618.287,174.253 617.62,173.586 617.5,172.5C 621.942,170.318 624.442,166.651 625,161.5C 626.231,154.15 625.231,147.15 622,140.5C 617.149,135.501 611.982,135.167 606.5,139.5C 604.809,133.385 606.809,132.052 612.5,135.5C 614.208,135.297 615.541,134.464 616.5,133C 613.511,132.67 610.678,131.836 608,130.5C 605.825,132.523 603.325,133.857 600.5,134.5C 600.5,135.5 600.5,136.5 600.5,137.5C 598.142,137.253 596.142,137.919 594.5,139.5C 600.161,130.143 608.495,126.643 619.5,129C 629.624,131.624 635.291,138.124 636.5,148.5 Z"/></g>
<g><path style="opacity:1" fill="#3d53f8" d="M 134.5,114.5 C 134.493,117.038 134.159,119.538 133.5,122C 134.27,124.069 135.603,125.735 137.5,127C 140.543,126.652 143.543,126.818 146.5,127.5C 149.011,125.501 151.344,123.501 153.5,121.5C 152.952,123.626 152.285,125.626 151.5,127.5C 149.824,128.183 149.157,129.517 149.5,131.5C 147.233,132.596 145.4,134.263 144,136.5C 143.667,135.833 143.333,135.167 143,134.5C 141.635,137.283 139.468,139.283 136.5,140.5C 135.843,136.854 133.843,134.52 130.5,133.5C 130.5,128.167 130.5,122.833 130.5,117.5C 131.5,117.5 132.5,117.5 133.5,117.5C 133.263,116.209 133.596,115.209 134.5,114.5 Z"/></g>
<g><path style="opacity:1" fill="#4466ee" d="M 130.5,117.5 C 130.5,122.833 130.5,128.167 130.5,133.5C 133.843,134.52 135.843,136.854 136.5,140.5C 139.468,139.283 141.635,137.283 143,134.5C 143.333,135.167 143.667,135.833 144,136.5C 145.4,134.263 147.233,132.596 149.5,131.5C 148.071,134.308 147.405,137.308 147.5,140.5C 145.801,140.34 144.134,140.506 142.5,141C 140.225,142.858 137.725,144.358 135,145.5C 133.556,143.845 131.722,143.178 129.5,143.5C 128.833,143.5 128.167,143.5 127.5,143.5C 127.376,136.479 127.71,129.479 128.5,122.5C 128.556,120.36 129.223,118.694 130.5,117.5 Z"/></g>
<g><path style="opacity:0.79" fill="#0759c3" d="M 461.5,116.5 C 460.503,137.327 460.169,158.327 460.5,179.5C 459.209,179.263 458.209,179.596 457.5,180.5C 456.833,180.5 456.167,180.5 455.5,180.5C 453.469,180.028 451.802,179.028 450.5,177.5C 453.5,177.5 456.5,177.5 459.5,177.5C 459.5,156.167 459.5,134.833 459.5,113.5C 457.08,113.292 454.747,113.626 452.5,114.5C 451.833,134.996 451.167,155.329 450.5,175.5C 450.667,159.497 450.5,143.497 450,127.5C 449.826,122.649 449.326,117.982 448.5,113.5C 448.611,112.883 448.944,112.383 449.5,112C 453.167,111.333 456.833,111.333 460.5,112C 461.38,113.356 461.714,114.856 461.5,116.5 Z"/></g>
<g><path style="opacity:1" fill="#1560ca" d="M 731.5,130.5 C 731.787,133.484 733.454,134.817 736.5,134.5C 736.5,135.833 736.5,137.167 736.5,138.5C 733.763,138.599 731.096,138.265 728.5,137.5C 726.135,136.992 723.801,136.325 721.5,135.5C 713.485,136.027 711.485,139.694 715.5,146.5C 714.504,146.586 713.671,146.252 713,145.5C 712.615,141.188 711.948,136.855 711,132.5C 709.916,133.665 709.083,134.998 708.5,136.5C 707.675,137.386 706.675,137.719 705.5,137.5C 705.784,140.857 704.451,143.191 701.5,144.5C 702.952,133.227 709.452,127.894 721,128.5C 724.695,128.382 728.195,129.049 731.5,130.5 Z"/></g>
<g><path style="opacity:1" fill="#0464df" d="M 404.5,143.5 C 403.85,143.804 403.183,144.137 402.5,144.5C 401.503,151.134 401.17,157.8 401.5,164.5C 399.516,164.383 397.85,165.05 396.5,166.5C 395.369,164.926 395.202,163.259 396,161.5C 396.92,161.07 397.753,160.736 398.5,160.5C 394.726,156.206 393.56,151.206 395,145.5C 396.194,143.377 396.86,141.043 397,138.5C 399.783,135.544 402.616,132.877 405.5,130.5C 409.541,130.325 413.541,130.158 417.5,130C 419.037,131.11 419.703,132.61 419.5,134.5C 415.8,134.921 412.133,135.588 408.5,136.5C 406.384,138.4 405.051,140.733 404.5,143.5 Z"/></g>
<g><path style="opacity:0.912" fill="#1859ae" d="M 546.5,172.5 C 544.887,172.056 543.72,171.056 543,169.5C 542.333,158.5 542.333,147.5 543,136.5C 546.394,135.544 549.894,135.211 553.5,135.5C 553.5,134.167 553.5,132.833 553.5,131.5C 550.102,131.82 546.768,131.487 543.5,130.5C 542.574,126.906 542.241,123.24 542.5,119.5C 540.143,119.337 537.81,119.503 535.5,120C 534.891,121.948 534.224,123.782 533.5,125.5C 533.5,123.167 533.5,120.833 533.5,118.5C 536.85,118.335 540.183,118.502 543.5,119C 544.456,122.394 544.789,125.894 544.5,129.5C 547.85,129.335 551.183,129.502 554.5,130C 555.435,132.381 555.768,134.881 555.5,137.5C 551.833,137.5 548.167,137.5 544.5,137.5C 544.334,147.506 544.5,157.506 545,167.5C 545.608,169.154 546.108,170.821 546.5,172.5 Z"/></g>
<g><path style="opacity:0.951" fill="#1d5caf" d="M 731.5,130.5 C 735.615,132.114 738.615,134.948 740.5,139C 737.367,140.57 734.033,140.903 730.5,140C 729.619,139.292 728.953,138.458 728.5,137.5C 731.096,138.265 733.763,138.599 736.5,138.5C 736.5,137.167 736.5,135.833 736.5,134.5C 733.454,134.817 731.787,133.484 731.5,130.5 Z"/></g>
<g><path style="opacity:1" fill="#4568f5" d="M 195.5,136.5 C 195.5,138.833 195.5,141.167 195.5,143.5C 189.464,143.36 183.464,143.693 177.5,144.5C 177.5,139.833 177.5,135.167 177.5,130.5C 178.334,129.252 179.667,128.585 181.5,128.5C 186.361,129.004 191.027,130.004 195.5,131.5C 195.5,133.167 195.5,134.833 195.5,136.5 Z"/></g>
<g><path style="opacity:1" fill="#4662f3" d="M 242.5,119.5 C 243.492,127.316 243.826,135.316 243.5,143.5C 236.745,142.877 230.412,143.544 224.5,145.5C 224.167,145.5 223.833,145.5 223.5,145.5C 223.5,144.5 223.5,143.5 223.5,142.5C 225.009,137.103 224.675,131.77 222.5,126.5C 225.021,128.03 226.021,130.364 225.5,133.5C 226.833,133.5 228.167,133.5 229.5,133.5C 229.201,135.604 229.534,137.604 230.5,139.5C 234.389,138.189 238.389,137.522 242.5,137.5C 242.5,131.5 242.5,125.5 242.5,119.5 Z"/></g>
<g><path style="opacity:1" fill="#1061d1" d="M 112.5,140.5 C 112.829,153.344 112.495,166.011 111.5,178.5C 111.713,167.473 111.38,156.473 110.5,145.5C 108.064,145.683 105.897,145.016 104,143.5C 103.329,144.252 102.496,144.586 101.5,144.5C 101.054,136.879 97.0537,134.379 89.5,137C 87.3425,138.981 85.6759,141.314 84.5,144C 81.5,144.667 78.5,144.667 75.5,144C 73.3763,141.592 73.543,139.092 76,136.5C 84.0794,128.583 93.5794,126.416 104.5,130C 108.919,132.242 111.586,135.742 112.5,140.5 Z"/></g>
<g><path style="opacity:0.914" fill="#175bc0" d="M 532.5,129.5 C 532.548,130.507 531.548,130.84 529.5,130.5C 529.5,131.833 529.5,133.167 529.5,134.5C 531.5,134.5 533.5,134.5 535.5,134.5C 535.333,146.505 535.5,158.505 536,170.5C 537.955,172.911 539.789,175.411 541.5,178C 543.833,178.667 546.167,178.667 548.5,178C 548.957,177.586 549.291,177.086 549.5,176.5C 547.023,175.12 547.023,174.12 549.5,173.5C 552.114,172.455 554.78,171.955 557.5,172C 558.435,174.381 558.768,176.881 558.5,179.5C 551.178,182.629 544.178,182.129 537.5,178C 536.789,176.745 535.956,175.579 535,174.5C 533.89,163.328 533.056,152.162 532.5,141C 533.337,139.989 533.67,138.822 533.5,137.5C 527.11,138.782 525.11,136.449 527.5,130.5C 529.045,129.548 530.712,129.215 532.5,129.5 Z"/></g>
<g><path style="opacity:1" fill="#1161d0" d="M 293.5,159.5 C 292.022,159.762 290.689,159.429 289.5,158.5C 289.018,155.48 288.685,152.48 288.5,149.5C 287.033,148.305 285.533,148.305 284,149.5C 282.715,149.05 281.548,148.383 280.5,147.5C 279.731,144.128 278.065,141.295 275.5,139C 273.324,138.837 271.491,138.004 270,136.5C 269.667,136.833 269.333,137.167 269,137.5C 269.611,140.033 270.111,142.7 270.5,145.5C 274.484,145.472 275.484,147.139 273.5,150.5C 268.531,144.688 263.697,138.688 259,132.5C 258.383,131.551 258.549,130.718 259.5,130C 263.833,129.333 268.167,129.333 272.5,130C 276.377,135.585 279.877,141.418 283,147.5C 286.626,141.75 290.126,135.916 293.5,130C 298.155,129.501 302.821,129.334 307.5,129.5C 307.649,130.552 307.483,131.552 307,132.5C 301.257,139.654 295.757,146.988 290.5,154.5C 291.952,155.94 292.952,157.606 293.5,159.5 Z"/></g>
<g><path style="opacity:1" fill="#1460cb" d="M 378.5,146.5 C 378.265,147.097 377.765,147.43 377,147.5C 370.545,143.862 367.378,145.528 367.5,152.5C 370.815,153.322 373.482,155.155 375.5,158C 375.361,159.301 374.695,160.134 373.5,160.5C 373.249,158.83 372.582,157.33 371.5,156C 363.979,152.407 356.646,148.574 349.5,144.5C 339.03,138.589 336.53,130.256 342,119.5C 350.867,111.725 361.033,109.559 372.5,113C 379.227,115.643 383.227,120.476 384.5,127.5C 377.897,128.942 372.564,127.109 368.5,122C 364.195,120.077 359.862,120.077 355.5,122C 350.584,125.866 350.251,130.199 354.5,135C 362.648,138.574 370.648,142.408 378.5,146.5 Z"/></g>
<g><path style="opacity:1" fill="#0364e1" d="M 349.5,144.5 C 347.218,141.878 344.885,139.212 342.5,136.5C 340.018,131.005 340.184,125.671 343,120.5C 345.539,116.624 347.872,116.624 350,120.5C 350.048,126.32 350.881,131.987 352.5,137.5C 353.167,137.167 353.833,136.833 354.5,136.5C 356.932,138.414 359.598,139.748 362.5,140.5C 362.5,141.5 362.5,142.5 362.5,143.5C 363.978,143.238 365.311,143.571 366.5,144.5C 361.562,147.993 358.228,146.993 356.5,141.5C 354.742,143.738 352.408,144.738 349.5,144.5 Z"/></g>
<g><path style="opacity:1" fill="#1460c9" d="M 426.5,178.5 C 426.5,177.167 426.5,175.833 426.5,174.5C 430.29,174.992 430.956,174.159 428.5,172C 430.134,171.506 431.801,171.34 433.5,171.5C 434.058,166.657 434.725,161.823 435.5,157C 435.024,152.84 434.691,148.673 434.5,144.5C 432.61,144.297 431.11,144.963 430,146.5C 429.667,145.833 429.333,145.167 429,144.5C 429.492,149.449 429.492,154.449 429,159.5C 428.215,162.436 427.049,164.436 425.5,165.5C 427.19,157.353 426.69,149.353 424,141.5C 420.13,136.437 415.296,135.27 409.5,138C 407.177,140.17 405.51,142.67 404.5,145.5C 404.5,144.833 404.5,144.167 404.5,143.5C 405.051,140.733 406.384,138.4 408.5,136.5C 412.133,135.588 415.8,134.921 419.5,134.5C 419.703,132.61 419.037,131.11 417.5,130C 413.541,130.158 409.541,130.325 405.5,130.5C 426.13,125.266 437.13,133.432 438.5,155C 439.076,165.351 435.076,173.185 426.5,178.5 Z"/></g>
<g><path style="opacity:1" fill="#4c7cf6" d="M 177.5,130.5 C 177.5,135.167 177.5,139.833 177.5,144.5C 183.464,143.693 189.464,143.36 195.5,143.5C 195.5,141.167 195.5,138.833 195.5,136.5C 196.482,137.141 197.482,137.807 198.5,138.5C 199.492,142.783 199.826,147.116 199.5,151.5C 198.167,151.5 196.833,151.5 195.5,151.5C 195.617,153.484 194.95,155.15 193.5,156.5C 191.034,157.123 188.701,157.957 186.5,159C 183.24,159.784 180.073,159.617 177,158.5C 176.095,153.206 175.595,147.872 175.5,142.5C 175.278,138.203 175.945,134.203 177.5,130.5 Z"/></g>
<g><path style="opacity:1" fill="#0462db" d="M 509.5,131.5 C 512.833,131.5 516.167,131.5 519.5,131.5C 519.787,147.202 519.454,162.869 518.5,178.5C 515.5,178.5 512.5,178.5 509.5,178.5C 508.167,178.167 508.167,177.833 509.5,177.5C 509.884,168.889 510.217,160.055 510.5,151C 510.494,145.784 509.827,140.951 508.5,136.5C 509.301,134.958 509.634,133.292 509.5,131.5 Z"/></g>
<g><path style="opacity:0.966" fill="#135cbf" d="M 660.5,133.5 C 662.771,134.345 665.105,135.345 667.5,136.5C 671.135,135.764 674.802,135.931 678.5,137C 679.653,138.883 681.319,139.716 683.5,139.5C 683.333,152.171 683.5,164.838 684,177.5C 686.381,178.435 688.881,178.768 691.5,178.5C 691.832,166.149 691.499,153.815 690.5,141.5C 690.251,137.751 688.251,135.917 684.5,136C 684.833,135.667 685.167,135.333 685.5,135C 684.707,133.915 684.04,132.748 683.5,131.5C 675.928,129.897 668.594,130.564 661.5,133.5C 668.507,128.529 676.174,127.362 684.5,130C 689.266,132.429 692.1,136.263 693,141.5C 693.5,154.496 693.667,167.496 693.5,180.5C 689.563,180.793 685.73,180.46 682,179.5C 681.667,167.5 681.333,155.5 681,143.5C 680.232,139.735 677.898,137.735 674,137.5C 667.863,138.098 662.529,140.431 658,144.5C 657.667,156.167 657.333,167.833 657,179.5C 653.27,180.46 649.437,180.793 645.5,180.5C 645.5,163.5 645.5,146.5 645.5,129.5C 649.226,129.177 652.893,129.511 656.5,130.5C 657.057,132.235 657.39,133.902 657.5,135.5C 658.518,134.807 659.518,134.141 660.5,133.5 Z"/></g>
<g><path style="opacity:1" fill="#0265e3" d="M 647.5,131.5 C 649.5,131.5 651.5,131.5 653.5,131.5C 653.5,134.167 653.5,136.833 653.5,139.5C 658.154,139.395 658.654,140.729 655,143.5C 654.667,153.833 654.333,164.167 654,174.5C 652.294,175.308 651.461,176.641 651.5,178.5C 650.167,178.5 648.833,178.5 647.5,178.5C 647.5,162.833 647.5,147.167 647.5,131.5 Z"/></g>
<g><path style="opacity:1" fill="#0664df" d="M 378.5,146.5 C 382.664,149.493 385.331,153.493 386.5,158.5C 382.996,161.69 381.329,165.69 381.5,170.5C 379.567,170.729 377.9,171.562 376.5,173C 376.833,173.333 377.167,173.667 377.5,174C 375.709,174.415 374.376,175.415 373.5,177C 371.527,177.495 369.527,177.662 367.5,177.5C 367.281,176.325 367.614,175.325 368.5,174.5C 370.936,175.891 371.602,175.391 370.5,173C 372.968,171.616 375.135,169.783 377,167.5C 377.492,166.451 377.326,165.451 376.5,164.5C 377.5,163.833 378.5,163.167 379.5,162.5C 378.478,161.646 377.645,160.646 377,159.5C 376.583,160.756 375.75,161.423 374.5,161.5C 373.833,161.5 373.5,161.167 373.5,160.5C 374.695,160.134 375.361,159.301 375.5,158C 373.482,155.155 370.815,153.322 367.5,152.5C 367.378,145.528 370.545,143.862 377,147.5C 377.765,147.43 378.265,147.097 378.5,146.5 Z"/></g>
<g><path style="opacity:1" fill="#0364e1" d="M 660.5,133.5 C 660.833,133.5 661.167,133.5 661.5,133.5C 668.594,130.564 675.928,129.897 683.5,131.5C 684.04,132.748 684.707,133.915 685.5,135C 685.167,135.333 684.833,135.667 684.5,136C 688.251,135.917 690.251,137.751 690.5,141.5C 691.499,153.815 691.832,166.149 691.5,178.5C 688.881,178.768 686.381,178.435 684,177.5C 683.5,164.838 683.333,152.171 683.5,139.5C 681.319,139.716 679.653,138.883 678.5,137C 674.802,135.931 671.135,135.764 667.5,136.5C 665.105,135.345 662.771,134.345 660.5,133.5 Z"/></g>
<g><path style="opacity:1" fill="#4783fa" d="M 243.5,143.5 C 243.5,144.167 243.5,144.833 243.5,145.5C 243.082,151.669 242.415,157.669 241.5,163.5C 241.67,162.178 241.337,161.011 240.5,160C 237.502,158.57 234.502,158.07 231.5,158.5C 230.137,157.107 229.304,155.441 229,153.5C 226.875,156.161 227.041,158.661 229.5,161C 229.387,162.28 228.72,163.113 227.5,163.5C 225.715,157.681 224.715,151.681 224.5,145.5C 230.412,143.544 236.745,142.877 243.5,143.5 Z"/></g>
<g><path style="opacity:1" fill="#0463de" d="M 111.5,178.5 C 108.487,178.628 105.987,177.628 104,175.5C 95.8756,179.776 87.3756,180.609 78.5,178C 73.1221,174.033 71.4554,168.866 73.5,162.5C 75.6173,160.166 77.6173,157.666 79.5,155C 81.8127,154.338 84.146,153.838 86.5,153.5C 84.9325,157.367 83.2658,161.2 81.5,165C 82.7157,173.789 87.7157,176.789 96.5,174C 98.5844,173.303 100.251,172.136 101.5,170.5C 101.5,170.167 101.5,169.833 101.5,169.5C 102.496,169.586 103.329,169.252 104,168.5C 104.667,163.5 104.667,158.5 104,153.5C 102.687,152.427 101.187,151.76 99.5,151.5C 98.0137,152.814 96.347,153.814 94.5,154.5C 92.1807,153.936 89.8474,153.436 87.5,153C 89.8783,150.915 92.545,149.415 95.5,148.5C 97.2922,147.691 99.2922,147.191 101.5,147C 102.598,146.23 102.598,145.397 101.5,144.5C 102.496,144.586 103.329,144.252 104,143.5C 105.897,145.016 108.064,145.683 110.5,145.5C 111.38,156.473 111.713,167.473 111.5,178.5 Z M 101.5,169.5 C 101.5,169.833 101.5,170.167 101.5,170.5C 97.1146,172.906 92.4479,173.74 87.5,173C 84.3171,171.982 82.9838,169.815 83.5,166.5C 83.2585,163.486 84.2585,160.986 86.5,159C 91.489,156.253 96.8224,154.753 102.5,154.5C 102.779,159.595 102.445,164.595 101.5,169.5 Z"/></g>
<g><path style="opacity:1" fill="#0d63d8" d="M 293.5,159.5 C 296.802,162.974 299.968,166.641 303,170.5C 303.333,170.167 303.667,169.833 304,169.5C 304.49,170.793 304.657,172.127 304.5,173.5C 304.5,175.5 304.5,177.5 304.5,179.5C 301.167,179.5 297.833,179.5 294.5,179.5C 290.441,173.734 286.608,167.734 283,161.5C 279.261,167.304 275.761,173.304 272.5,179.5C 270,179.833 267.5,180.167 265,180.5C 261.973,180.618 259.139,180.118 256.5,179C 263.028,171.439 269.195,163.606 275,155.5C 275.122,153.718 274.622,152.052 273.5,150.5C 275.484,147.139 274.484,145.472 270.5,145.5C 270.111,142.7 269.611,140.033 269,137.5C 269.333,137.167 269.667,136.833 270,136.5C 271.491,138.004 273.324,138.837 275.5,139C 278.065,141.295 279.731,144.128 280.5,147.5C 281.548,148.383 282.715,149.05 284,149.5C 285.533,148.305 287.033,148.305 288.5,149.5C 288.685,152.48 289.018,155.48 289.5,158.5C 290.689,159.429 292.022,159.762 293.5,159.5 Z"/></g>
<g><path style="opacity:1" fill="#0364e2" d="M 606.5,139.5 C 605.504,139.414 604.671,139.748 604,140.5C 601.296,145.108 599.962,150.108 600,155.5C 599.013,158.134 597.513,160.468 595.5,162.5C 594.914,162.291 594.414,161.957 594,161.5C 593.628,154.16 593.795,146.827 594.5,139.5C 596.142,137.919 598.142,137.253 600.5,137.5C 600.5,136.5 600.5,135.5 600.5,134.5C 603.325,133.857 605.825,132.523 608,130.5C 610.678,131.836 613.511,132.67 616.5,133C 615.541,134.464 614.208,135.297 612.5,135.5C 606.809,132.052 604.809,133.385 606.5,139.5 Z"/></g>
<g><path style="opacity:0.314" fill="#2059c7" d="M 509.5,178.5 C 512.5,178.5 515.5,178.5 518.5,178.5C 519.454,162.869 519.787,147.202 519.5,131.5C 516.167,131.5 512.833,131.5 509.5,131.5C 510.694,130.223 512.36,129.556 514.5,129.5C 516.429,129.54 518.262,129.873 520,130.5C 521.069,147.179 521.236,163.846 520.5,180.5C 516.351,181.08 512.684,180.414 509.5,178.5 Z"/></g>
<g><path style="opacity:1" fill="#4784fa" d="M 151.5,127.5 C 150.766,128.708 150.433,130.041 150.5,131.5C 150.5,133.167 150.5,134.833 150.5,136.5C 149.677,139.977 149.177,143.644 149,147.5C 148.004,151.501 146.004,154.834 143,157.5C 141.954,155.91 140.787,154.41 139.5,153C 138.004,152.493 136.837,152.993 136,154.5C 135.667,156.833 135.333,159.167 135,161.5C 134.259,162.641 133.425,162.641 132.5,161.5C 131.818,162.243 131.151,162.909 130.5,163.5C 129.724,156.863 129.391,150.196 129.5,143.5C 131.722,143.178 133.556,143.845 135,145.5C 137.725,144.358 140.225,142.858 142.5,141C 144.134,140.506 145.801,140.34 147.5,140.5C 147.405,137.308 148.071,134.308 149.5,131.5C 149.157,129.517 149.824,128.183 151.5,127.5 Z"/></g>
<g><path style="opacity:1" fill="#6484ce" d="M 246.5,154.5 C 246.82,157.898 246.487,161.232 245.5,164.5C 243.889,165.32 243.222,166.654 243.5,168.5C 241.973,168.427 240.973,169.094 240.5,170.5C 238.824,169.817 238.157,168.483 238.5,166.5C 239.5,166.5 240.5,166.5 241.5,166.5C 241.5,165.5 241.5,164.5 241.5,163.5C 242.415,157.669 243.082,151.669 243.5,145.5C 244.222,145.082 244.722,144.416 245,143.5C 245.24,147.252 245.74,150.919 246.5,154.5 Z"/></g>
<g><path style="opacity:1" fill="#0a63da" d="M 715.5,146.5 C 722.226,148.041 728.56,150.375 734.5,153.5C 740.594,160.609 740.927,167.943 735.5,175.5C 733.5,176.833 731.5,176.833 729.5,175.5C 732.766,169.306 732.099,163.806 727.5,159C 726.207,158.51 724.873,158.343 723.5,158.5C 713.128,158.329 705.795,153.662 701.5,144.5C 704.451,143.191 705.784,140.857 705.5,137.5C 706.675,137.719 707.675,137.386 708.5,136.5C 709.083,134.998 709.916,133.665 711,132.5C 711.948,136.855 712.615,141.188 713,145.5C 713.671,146.252 714.504,146.586 715.5,146.5 Z"/></g>
<g><path style="opacity:1" fill="#155dc6" d="M 594.5,139.5 C 593.795,146.827 593.628,154.16 594,161.5C 594.414,161.957 594.914,162.291 595.5,162.5C 597.513,160.468 599.013,158.134 600,155.5C 599.962,150.108 601.296,145.108 604,140.5C 604.671,139.748 605.504,139.414 606.5,139.5C 602.435,147.819 601.602,156.486 604,165.5C 605.976,171.551 610.142,174.218 616.5,173.5C 616.5,174.5 616.5,175.5 616.5,176.5C 613.14,176.384 609.807,176.051 606.5,175.5C 606.736,172.774 605.903,170.441 604,168.5C 603.333,169.833 602.667,169.833 602,168.5C 599.881,175.501 602.381,179.335 609.5,180C 612.5,180.667 615.5,180.667 618.5,180C 620.49,178.249 622.823,177.249 625.5,177C 627.439,176.092 628.439,174.592 628.5,172.5C 629.675,172.719 630.675,172.386 631.5,171.5C 633.069,168.002 634.736,164.669 636.5,161.5C 634.525,174.305 627.025,180.972 614,181.5C 598.398,180.057 590.564,171.39 590.5,155.5C 590.828,149.776 592.161,144.442 594.5,139.5 Z"/></g>
<g><path style="opacity:0.686" fill="#6782b0" d="M 153.5,129.5 C 152.167,144.833 152.167,160.167 153.5,175.5C 153.5,176.167 153.167,176.5 152.5,176.5C 150.578,168.436 149.912,160.103 150.5,151.5C 150.5,146.5 150.5,141.5 150.5,136.5C 150.5,134.833 150.5,133.167 150.5,131.5C 151.222,130.449 152.222,129.782 153.5,129.5 Z"/></g>
<g><path style="opacity:1" fill="#3299fa" d="M 150.5,136.5 C 150.5,141.5 150.5,146.5 150.5,151.5C 149.834,155.82 149.501,160.32 149.5,165C 149.606,170.34 150.273,175.507 151.5,180.5C 149.5,180.5 147.5,180.5 145.5,180.5C 145.949,178.023 145.283,176.023 143.5,174.5C 142.246,176.259 142.579,177.759 144.5,179C 143.751,180.734 143.251,182.567 143,184.5C 142.617,183.944 142.117,183.611 141.5,183.5C 141.811,179.32 141.145,175.32 139.5,171.5C 138.914,171.709 138.414,172.043 138,172.5C 137.572,167.502 136.739,167.335 135.5,172C 133.342,172.909 131.342,173.075 129.5,172.5C 129.19,169.287 129.523,166.287 130.5,163.5C 131.151,162.909 131.818,162.243 132.5,161.5C 133.425,162.641 134.259,162.641 135,161.5C 135.333,159.167 135.667,156.833 136,154.5C 136.837,152.993 138.004,152.493 139.5,153C 140.787,154.41 141.954,155.91 143,157.5C 146.004,154.834 148.004,151.501 149,147.5C 149.177,143.644 149.677,139.977 150.5,136.5 Z"/></g>
<g><path style="opacity:1" fill="#0463e1" d="M 426.5,178.5 C 423.513,178.002 420.513,177.502 417.5,177C 420.353,174.579 422.687,171.746 424.5,168.5C 424.263,167.209 424.596,166.209 425.5,165.5C 427.049,164.436 428.215,162.436 429,159.5C 429.492,154.449 429.492,149.449 429,144.5C 429.333,145.167 429.667,145.833 430,146.5C 431.11,144.963 432.61,144.297 434.5,144.5C 434.691,148.673 435.024,152.84 435.5,157C 434.725,161.823 434.058,166.657 433.5,171.5C 431.801,171.34 430.134,171.506 428.5,172C 430.956,174.159 430.29,174.992 426.5,174.5C 426.5,175.833 426.5,177.167 426.5,178.5 Z"/></g>
<g><path style="opacity:0.679" fill="#2965b1" d="M 448.5,113.5 C 449.326,117.982 449.826,122.649 450,127.5C 450.5,143.497 450.667,159.497 450.5,175.5C 450.5,176.167 450.5,176.833 450.5,177.5C 451.802,179.028 453.469,180.028 455.5,180.5C 453.208,180.756 451.041,180.423 449,179.5C 448.5,157.503 448.333,135.503 448.5,113.5 Z"/></g>
<g><path style="opacity:0.96" fill="#1f5fb2" d="M 578.5,130.5 C 579.497,146.992 579.83,163.658 579.5,180.5C 575.233,180.797 571.066,180.464 567,179.5C 566.333,163.5 566.333,147.5 567,131.5C 568.698,130.267 570.698,129.6 573,129.5C 575.033,129.506 576.866,129.839 578.5,130.5 Z"/></g>
<g><path style="opacity:1" fill="#0263e0" d="M 578.5,130.5 C 578.5,146.5 578.5,162.5 578.5,178.5C 575.5,178.5 572.5,178.5 569.5,178.5C 569.679,162.484 569.346,146.484 568.5,130.5C 571.833,130.5 575.167,130.5 578.5,130.5 Z"/></g>
<g><path style="opacity:1" fill="#3794f5" d="M 223.5,145.5 C 223.833,145.5 224.167,145.5 224.5,145.5C 224.715,151.681 225.715,157.681 227.5,163.5C 228.72,163.113 229.387,162.28 229.5,161C 227.041,158.661 226.875,156.161 229,153.5C 229.304,155.441 230.137,157.107 231.5,158.5C 234.502,158.07 237.502,158.57 240.5,160C 241.337,161.011 241.67,162.178 241.5,163.5C 241.5,164.5 241.5,165.5 241.5,166.5C 240.5,166.5 239.5,166.5 238.5,166.5C 238.157,168.483 238.824,169.817 240.5,170.5C 237.868,173.081 235.868,176.081 234.5,179.5C 232.683,178.781 232.016,177.781 232.5,176.5C 231.742,177.811 230.742,178.311 229.5,178C 229.833,177.667 230.167,177.333 230.5,177C 227.244,174.913 224.911,172.079 223.5,168.5C 222.614,169.325 222.281,170.325 222.5,171.5C 220.876,171.64 219.71,170.973 219,169.5C 217.812,170.563 217.312,171.897 217.5,173.5C 215.11,173.855 212.777,174.522 210.5,175.5C 209.274,175.48 208.274,175.147 207.5,174.5C 211.802,172.198 215.135,168.865 217.5,164.5C 218.156,161.372 219.656,158.705 222,156.5C 222.177,152.644 222.677,148.977 223.5,145.5 Z"/></g>
<g><path style="opacity:1" fill="#1561cc" d="M 405.5,130.5 C 402.616,132.877 399.783,135.544 397,138.5C 396.86,141.043 396.194,143.377 395,145.5C 393.56,151.206 394.726,156.206 398.5,160.5C 397.753,160.736 396.92,161.07 396,161.5C 395.202,163.259 395.369,164.926 396.5,166.5C 397.85,165.05 399.516,164.383 401.5,164.5C 401.17,157.8 401.503,151.134 402.5,144.5C 403.183,144.137 403.85,143.804 404.5,143.5C 404.5,144.167 404.5,144.833 404.5,145.5C 402.664,153.802 403.497,161.802 407,169.5C 413.158,175.058 418.991,174.725 424.5,168.5C 422.687,171.746 420.353,174.579 417.5,177C 420.513,177.502 423.513,178.002 426.5,178.5C 405.611,185.709 393.945,178.209 391.5,156C 390.948,146.309 394.281,138.309 401.5,132C 402.745,131.209 404.078,130.709 405.5,130.5 Z"/></g>
<g><path style="opacity:1" fill="#0563de" d="M 636.5,148.5 C 637.833,152.833 637.833,157.167 636.5,161.5C 634.736,164.669 633.069,168.002 631.5,171.5C 630.675,172.386 629.675,172.719 628.5,172.5C 628.439,174.592 627.439,176.092 625.5,177C 622.823,177.249 620.49,178.249 618.5,180C 615.5,180.667 612.5,180.667 609.5,180C 602.381,179.335 599.881,175.501 602,168.5C 602.667,169.833 603.333,169.833 604,168.5C 605.903,170.441 606.736,172.774 606.5,175.5C 609.807,176.051 613.14,176.384 616.5,176.5C 616.5,175.5 616.5,174.5 616.5,173.5C 616.5,172.833 616.833,172.5 617.5,172.5C 617.62,173.586 618.287,174.253 619.5,174.5C 623.551,173.385 625.718,170.718 626,166.5C 626.667,159.167 626.667,151.833 626,144.5C 623.966,141.294 622.133,137.96 620.5,134.5C 620.833,134.167 621.167,133.833 621.5,133.5C 623.115,134.154 624.782,134.654 626.5,135C 625.549,135.718 625.383,136.551 626,137.5C 627.205,138.071 628.372,138.738 629.5,139.5C 629.877,141.824 630.877,142.491 632.5,141.5C 633.228,144.212 634.061,146.879 635,149.5C 635.383,148.944 635.883,148.611 636.5,148.5 Z"/></g>
<g><path style="opacity:1" fill="#1962c6" d="M 386.5,158.5 C 386.579,169.166 381.579,176.333 371.5,180C 362.081,182.577 353.081,181.577 344.5,177C 342.959,175.629 341.625,174.129 340.5,172.5C 342.544,173.031 344.211,174.198 345.5,176C 351.109,177.384 356.775,177.717 362.5,177C 361.833,176.333 361.167,175.667 360.5,175C 356.182,174.66 352.182,173.493 348.5,171.5C 348.778,169.654 348.111,168.32 346.5,167.5C 344.833,168.833 343.167,168.833 341.5,167.5C 340.828,168.949 340.161,170.282 339.5,171.5C 338.27,169.703 337.604,167.703 337.5,165.5C 341.535,164.633 345.535,164.633 349.5,165.5C 351.978,170.289 355.978,172.622 361.5,172.5C 369.271,172.72 373.604,169.054 374.5,161.5C 375.75,161.423 376.583,160.756 377,159.5C 377.645,160.646 378.478,161.646 379.5,162.5C 378.5,163.167 377.5,163.833 376.5,164.5C 377.326,165.451 377.492,166.451 377,167.5C 375.135,169.783 372.968,171.616 370.5,173C 371.602,175.391 370.936,175.891 368.5,174.5C 367.614,175.325 367.281,176.325 367.5,177.5C 369.527,177.662 371.527,177.495 373.5,177C 374.376,175.415 375.709,174.415 377.5,174C 377.167,173.667 376.833,173.333 376.5,173C 377.9,171.562 379.567,170.729 381.5,170.5C 381.329,165.69 382.996,161.69 386.5,158.5 Z"/></g>
<g><path style="opacity:1" fill="#1a5fbf" d="M 734.5,153.5 C 742.784,158.221 744.618,164.888 740,173.5C 735.222,179.304 729.055,181.971 721.5,181.5C 713.696,181.847 707.196,179.18 702,173.5C 701.51,172.207 701.343,170.873 701.5,169.5C 704.038,169.493 706.538,169.159 709,168.5C 711.723,169.541 714.223,171.041 716.5,173C 718.134,173.494 719.801,173.66 721.5,173.5C 719.316,174.266 716.982,174.933 714.5,175.5C 712.639,174.472 711.305,172.972 710.5,171C 707.833,170.333 705.167,170.333 702.5,171C 707.942,177.593 715.109,180.426 724,179.5C 725.833,179.333 727.667,179.167 729.5,179C 726.623,177.873 723.623,177.206 720.5,177C 720.167,176.667 719.833,176.333 719.5,176C 721.437,175.878 722.77,175.045 723.5,173.5C 729.392,172.736 731.559,169.402 730,163.5C 728.035,161.45 725.868,159.783 723.5,158.5C 724.873,158.343 726.207,158.51 727.5,159C 732.099,163.806 732.766,169.306 729.5,175.5C 731.5,176.833 733.5,176.833 735.5,175.5C 740.927,167.943 740.594,160.609 734.5,153.5 Z"/></g>
<g><path style="opacity:1" fill="#0464e3" d="M 340.5,172.5 C 339.833,172.5 339.5,172.167 339.5,171.5C 340.161,170.282 340.828,168.949 341.5,167.5C 343.167,168.833 344.833,168.833 346.5,167.5C 348.111,168.32 348.778,169.654 348.5,171.5C 352.182,173.493 356.182,174.66 360.5,175C 361.167,175.667 361.833,176.333 362.5,177C 356.775,177.717 351.109,177.384 345.5,176C 344.211,174.198 342.544,173.031 340.5,172.5 Z"/></g>
<g><path style="opacity:1" fill="#2162b9" d="M 112.5,140.5 C 113.331,151.659 113.831,162.993 114,174.5C 114.813,176.436 115.313,178.436 115.5,180.5C 111.818,180.665 108.152,180.499 104.5,180C 103.667,179.167 102.833,178.333 102,177.5C 94.1039,182.139 85.9372,182.639 77.5,179C 70.4916,172.253 69.6583,164.753 75,156.5C 81.0191,151.771 87.8524,149.104 95.5,148.5C 92.545,149.415 89.8783,150.915 87.5,153C 89.8474,153.436 92.1807,153.936 94.5,154.5C 96.347,153.814 98.0137,152.814 99.5,151.5C 101.187,151.76 102.687,152.427 104,153.5C 104.667,158.5 104.667,163.5 104,168.5C 103.329,169.252 102.496,169.586 101.5,169.5C 102.445,164.595 102.779,159.595 102.5,154.5C 96.8224,154.753 91.489,156.253 86.5,159C 84.2585,160.986 83.2585,163.486 83.5,166.5C 82.9838,169.815 84.3171,171.982 87.5,173C 92.4479,173.74 97.1146,172.906 101.5,170.5C 100.251,172.136 98.5844,173.303 96.5,174C 87.7157,176.789 82.7157,173.789 81.5,165C 83.2658,161.2 84.9325,157.367 86.5,153.5C 84.146,153.838 81.8127,154.338 79.5,155C 77.6173,157.666 75.6173,160.166 73.5,162.5C 71.4554,168.866 73.1221,174.033 78.5,178C 87.3756,180.609 95.8756,179.776 104,175.5C 105.987,177.628 108.487,178.628 111.5,178.5C 112.495,166.011 112.829,153.344 112.5,140.5 Z M 101.5,169.5 C 101.5,169.833 101.5,170.167 101.5,170.5C 97.1146,172.906 92.4479,173.74 87.5,173C 84.3171,171.982 82.9838,169.815 83.5,166.5C 83.2585,163.486 84.2585,160.986 86.5,159C 91.489,156.253 96.8224,154.753 102.5,154.5C 102.779,159.595 102.445,164.595 101.5,169.5 Z"/></g>
<g><path style="opacity:0.995" fill="#0563dc" d="M 721.5,173.5 C 722.167,173.5 722.833,173.5 723.5,173.5C 722.77,175.045 721.437,175.878 719.5,176C 719.833,176.333 720.167,176.667 720.5,177C 723.623,177.206 726.623,177.873 729.5,179C 727.667,179.167 725.833,179.333 724,179.5C 715.109,180.426 707.942,177.593 702.5,171C 705.167,170.333 707.833,170.333 710.5,171C 711.305,172.972 712.639,174.472 714.5,175.5C 716.982,174.933 719.316,174.266 721.5,173.5 Z"/></g>
<g><path style="opacity:1" fill="#1b5ec2" d="M 487.5,170.5 C 486.25,170.423 485.417,169.756 485,168.5C 484.5,156.171 484.333,143.838 484.5,131.5C 481.833,131.5 479.167,131.5 476.5,131.5C 476.333,144.504 476.5,157.504 477,170.5C 478.011,171.337 479.178,171.67 480.5,171.5C 481.044,177.048 484.211,179.382 490,178.5C 496.797,179.232 497.963,177.232 493.5,172.5C 500.174,171.999 505.507,169.165 509.5,164C 508.515,154.917 508.182,145.751 508.5,136.5C 509.827,140.951 510.494,145.784 510.5,151C 510.217,160.055 509.884,168.889 509.5,177.5C 509.719,176.325 509.386,175.325 508.5,174.5C 500.878,181.071 492.211,182.904 482.5,180C 478.056,177.889 475.556,174.389 475,169.5C 474.333,156.5 474.333,143.5 475,130.5C 478.455,129.209 481.955,129.209 485.5,130.5C 486.185,143.833 486.851,157.166 487.5,170.5 Z"/></g>
<g><path style="opacity:1" fill="#0463df" d="M 487.5,170.5 C 489.698,170.875 491.698,171.542 493.5,172.5C 497.963,177.232 496.797,179.232 490,178.5C 484.211,179.382 481.044,177.048 480.5,171.5C 479.178,171.67 478.011,171.337 477,170.5C 476.5,157.504 476.333,144.504 476.5,131.5C 479.167,131.5 481.833,131.5 484.5,131.5C 484.333,143.838 484.5,156.171 485,168.5C 485.417,169.756 486.25,170.423 487.5,170.5 Z"/></g>
<g><path style="opacity:1" fill="#5c88b7" d="M 217.5,164.5 C 215.135,168.865 211.802,172.198 207.5,174.5C 203.191,175.154 199.191,176.654 195.5,179C 181.327,179.827 167.327,179.661 153.5,178.5C 166.837,178.667 180.171,178.5 193.5,178C 195.359,177.399 195.692,176.566 194.5,175.5C 194.611,174.883 194.944,174.383 195.5,174C 200.105,173.232 204.605,172.065 209,170.5C 211.472,167.841 214.306,165.841 217.5,164.5 Z"/></g>
<g><path style="opacity:1" fill="#329ff3" d="M 150.5,151.5 C 149.912,160.103 150.578,168.436 152.5,176.5C 152.833,177.167 153.167,177.833 153.5,178.5C 167.327,179.661 181.327,179.827 195.5,179C 199.191,176.654 203.191,175.154 207.5,174.5C 208.274,175.147 209.274,175.48 210.5,175.5C 212.777,174.522 215.11,173.855 217.5,173.5C 217.312,171.897 217.812,170.563 219,169.5C 219.71,170.973 220.876,171.64 222.5,171.5C 222.281,170.325 222.614,169.325 223.5,168.5C 224.911,172.079 227.244,174.913 230.5,177C 230.167,177.333 229.833,177.667 229.5,178C 230.742,178.311 231.742,177.811 232.5,176.5C 232.016,177.781 232.683,178.781 234.5,179.5C 234.249,181.17 233.582,182.67 232.5,184C 229.639,184.872 226.972,186.038 224.5,187.5C 223.135,185.409 222.468,183.076 222.5,180.5C 221.07,180.579 219.736,180.246 218.5,179.5C 217.293,181.27 215.626,182.27 213.5,182.5C 209.663,181.009 205.829,179.676 202,178.5C 199.914,179.418 197.747,180.085 195.5,180.5C 180.833,180.5 166.167,180.5 151.5,180.5C 150.273,175.507 149.606,170.34 149.5,165C 149.501,160.32 149.834,155.82 150.5,151.5 Z"/></g>
<g><path style="opacity:0.869" fill="#9cadc3" d="M 153.5,175.5 C 167.167,175.5 180.833,175.5 194.5,175.5C 195.692,176.566 195.359,177.399 193.5,178C 180.171,178.5 166.837,178.667 153.5,178.5C 153.167,177.833 152.833,177.167 152.5,176.5C 153.167,176.5 153.5,176.167 153.5,175.5 Z"/></g>
<g><path style="opacity:0.047" fill="#245b9c" d="M 304.5,173.5 C 306.303,175.481 307.97,177.648 309.5,180C 304.316,180.816 299.316,180.65 294.5,179.5C 297.833,179.5 301.167,179.5 304.5,179.5C 304.5,177.5 304.5,175.5 304.5,173.5 Z"/></g>
<g><path style="opacity:1" fill="#23a3fa" d="M 151.5,180.5 C 166.167,180.5 180.833,180.5 195.5,180.5C 195.577,181.75 196.244,182.583 197.5,183C 195.699,183.317 195.366,183.984 196.5,185C 186.165,185.139 175.998,185.972 166,187.5C 161.337,187.632 156.837,186.965 152.5,185.5C 150.657,185.46 148.657,185.126 146.5,184.5C 145.614,185.325 145.281,186.325 145.5,187.5C 143.567,187.271 141.9,186.438 140.5,185C 141.056,184.617 141.389,184.117 141.5,183.5C 142.117,183.611 142.617,183.944 143,184.5C 143.251,182.567 143.751,180.734 144.5,179C 142.579,177.759 142.246,176.259 143.5,174.5C 145.283,176.023 145.949,178.023 145.5,180.5C 147.5,180.5 149.5,180.5 151.5,180.5 Z"/></g>
<g><path style="opacity:0.782" fill="#3675b4" d="M 127.5,143.5 C 128.167,143.5 128.833,143.5 129.5,143.5C 129.391,150.196 129.724,156.863 130.5,163.5C 129.523,166.287 129.19,169.287 129.5,172.5C 129.197,181.251 129.53,189.918 130.5,198.5C 130.389,199.117 130.056,199.617 129.5,200C 134.351,200.174 139.018,200.674 143.5,201.5C 141.533,201.261 139.699,201.594 138,202.5C 134.41,202.115 131.077,201.115 128,199.5C 127.5,180.836 127.333,162.17 127.5,143.5 Z"/></g>
<g><path style="opacity:1" fill="#1ea8fa" d="M 224.5,187.5 C 224.607,189.903 223.607,191.736 221.5,193C 218.611,193.889 215.945,195.222 213.5,197C 211.527,197.495 209.527,197.662 207.5,197.5C 206.316,196.312 206.316,195.145 207.5,194C 210.876,192.93 214.21,191.764 217.5,190.5C 218.074,188.941 218.74,187.441 219.5,186C 215.078,185.688 210.744,186.188 206.5,187.5C 206.421,188.93 206.754,190.264 207.5,191.5C 204.644,194.286 201.978,194.119 199.5,191C 188.331,190.913 177.331,190.08 166.5,188.5C 163.833,188.667 161.167,188.833 158.5,189C 157.667,189.833 156.833,190.667 156,191.5C 154.869,189.395 153.703,187.395 152.5,185.5C 156.837,186.965 161.337,187.632 166,187.5C 175.998,185.972 186.165,185.139 196.5,185C 195.366,183.984 195.699,183.317 197.5,183C 196.244,182.583 195.577,181.75 195.5,180.5C 197.747,180.085 199.914,179.418 202,178.5C 205.829,179.676 209.663,181.009 213.5,182.5C 215.626,182.27 217.293,181.27 218.5,179.5C 219.736,180.246 221.07,180.579 222.5,180.5C 222.468,183.076 223.135,185.409 224.5,187.5 Z"/></g>
<g><path style="opacity:1" fill="#14affc" d="M 141.5,183.5 C 141.389,184.117 141.056,184.617 140.5,185C 141.9,186.438 143.567,187.271 145.5,187.5C 145.281,186.325 145.614,185.325 146.5,184.5C 148.657,185.126 150.657,185.46 152.5,185.5C 153.703,187.395 154.869,189.395 156,191.5C 156.833,190.667 157.667,189.833 158.5,189C 161.167,188.833 163.833,188.667 166.5,188.5C 177.331,190.08 188.331,190.913 199.5,191C 201.978,194.119 204.644,194.286 207.5,191.5C 206.754,190.264 206.421,188.93 206.5,187.5C 210.744,186.188 215.078,185.688 219.5,186C 218.74,187.441 218.074,188.941 217.5,190.5C 214.21,191.764 210.876,192.93 207.5,194C 206.316,195.145 206.316,196.312 207.5,197.5C 202.178,197.98 196.845,198.313 191.5,198.5C 173.086,197.745 154.586,196.745 136,195.5C 134.644,196.38 133.144,196.714 131.5,196.5C 131.629,192.122 131.629,187.955 131.5,184C 132,183.5 132.5,183 133,182.5C 134.162,184.824 135.329,187.158 136.5,189.5C 137.894,187.275 139.06,184.942 140,182.5C 140.383,183.056 140.883,183.389 141.5,183.5 Z"/></g>
<g><path style="opacity:1" fill="#2a9df2" d="M 141.5,183.5 C 140.883,183.389 140.383,183.056 140,182.5C 139.06,184.942 137.894,187.275 136.5,189.5C 135.329,187.158 134.162,184.824 133,182.5C 132.5,183 132,183.5 131.5,184C 131.629,187.955 131.629,192.122 131.5,196.5C 133.144,196.714 134.644,196.38 136,195.5C 154.586,196.745 173.086,197.745 191.5,198.5C 171.294,199.815 150.961,199.815 130.5,198.5C 129.53,189.918 129.197,181.251 129.5,172.5C 131.342,173.075 133.342,172.909 135.5,172C 136.739,167.335 137.572,167.502 138,172.5C 138.414,172.043 138.914,171.709 139.5,171.5C 141.145,175.32 141.811,179.32 141.5,183.5 Z"/></g>
<g><path style="opacity:0.216" fill="#5e8ab1" d="M 243.5,168.5 C 242.357,171.684 241.691,175.017 241.5,178.5C 237.935,179.324 235.935,181.657 235.5,185.5C 234.476,186.853 233.143,187.52 231.5,187.5C 231.719,188.675 231.386,189.675 230.5,190.5C 224.336,196.915 216.336,200.748 206.5,202C 185.329,202.829 164.329,202.663 143.5,201.5C 139.018,200.674 134.351,200.174 129.5,200C 130.056,199.617 130.389,199.117 130.5,198.5C 150.961,199.815 171.294,199.815 191.5,198.5C 196.845,198.313 202.178,197.98 207.5,197.5C 209.527,197.662 211.527,197.495 213.5,197C 215.945,195.222 218.611,193.889 221.5,193C 223.607,191.736 224.607,189.903 224.5,187.5C 226.972,186.038 229.639,184.872 232.5,184C 233.582,182.67 234.249,181.17 234.5,179.5C 235.868,176.081 237.868,173.081 240.5,170.5C 240.973,169.094 241.973,168.427 243.5,168.5 Z"/></g>
<g><path style="opacity:0.004" fill="#0000ff" d="M 220.5,198.5 C 221.833,199.167 221.833,199.167 220.5,198.5 Z"/></g>
</svg>
